<?xml version="1.0" encoding="UTF-8"?>
<svg width="17px" height="17px" viewBox="0 0 17 17" version="1.1" xmlns="http://www.w3.org/2000/svg" xmlns:xlink="http://www.w3.org/1999/xlink">
    <!-- Generator: Sketch 48.2 (47327) - http://www.bohemiancoding.com/sketch -->
    <title>ico_search</title>
    <desc>Created with Sketch.</desc>
    <defs></defs>
    <g id="PDP---Small-1" stroke="none" stroke-width="1" fill="none" fill-rule="evenodd" transform="translate(-23.000000, -104.000000)">
        <g id="Group-2" fill="#000000" fill-rule="nonzero">
            <g id="Group-4" transform="translate(0.000000, 76.000000)">
                <g id="ico_search" transform="translate(23.000000, 28.000000)">
                    <path d="M16.3066805,17 L11.5160018,12.2103277 C10.2508472,13.3113517 8.64917136,13.9124652 6.95616129,13.9124652 C5.09830601,13.9124652 3.35166922,13.1886755 2.03730453,11.8752547 C0.723842778,10.5610881 0,8.81443388 0,6.95662515 C0,5.09807055 0.723823149,3.35151443 2.0380897,2.03799557 C3.35155145,0.723828976 5.09905191,0 6.95694645,0 C8.81480173,0 10.5614385,0.72378972 11.8758032,2.03799557 C14.4713594,4.6334319 14.5824601,8.78675813 12.2101064,11.516255 L17,16.3059274 L16.3066805,17 Z M6.95675016,0.9816257 C5.36112006,0.9816257 3.86065185,1.60268144 2.73256734,2.7313027 C1.60389395,3.85992396 0.982809525,5.36049953 0.982809525,6.95587928 C0.982809525,8.55143569 1.60389395,10.0518346 2.73256734,11.1804559 C3.86047519,12.3090771 5.36110043,12.9301329 6.95675016,12.9301329 C8.55314579,12.9301329 10.0528485,12.3090771 11.1815219,11.1804559 C13.5109074,8.85117786 13.5109074,5.06038441 11.1815219,2.73110642 C10.0528485,1.60325066 8.5522036,0.981429418 6.95675016,0.981429418 L6.95675016,0.9816257 Z" id="Shape"></path>
                </g>
            </g>
        </g>
    </g>
</svg>