<?xml version="1.0" encoding="UTF-8"?>
<svg width="14px" height="19px" viewBox="0 0 14 19" version="1.1" xmlns="http://www.w3.org/2000/svg" xmlns:xlink="http://www.w3.org/1999/xlink">
    <!-- Generator: Sketch 48.2 (47327) - http://www.bohemiancoding.com/sketch -->
    <title>ico_bagEmpty</title>
    <desc>Created with Sketch.</desc>
    <defs></defs>
    <g id="PDP---Small-1" stroke="none" stroke-width="1" fill="none" fill-rule="evenodd" transform="translate(-65.000000, -102.000000)">
        <g id="Group-2" fill="#000000">
            <g id="Group-4" transform="translate(0.000000, 76.000000)">
                <g id="Group">
                    <g id="Group-3" transform="translate(65.000000, 26.000000)">
                        <path d="M11.5526277,3.52606377 L9.94234261,3.52606377 L9.94234261,3.14573553 C9.96535649,2.32050175 9.66617597,1.51917227 9.11178174,0.926916288 C8.557731,0.334660307 7.79689877,0 7.00137396,0 C6.20584916,0 5.44501693,0.334660307 4.8906227,0.926916288 C4.33657196,1.51917227 4.03739143,2.32050175 4.06006183,3.14573553 L4.06006183,3.52606377 L2.4473723,3.52606377 C1.0960793,3.52749089 0.00137396339,4.66455102 0,6.06812634 L0,16.4579374 C0.00137396339,17.8615128 1.0960793,18.9985729 2.4473723,19 L11.5526277,19 C12.9039207,18.9985729 13.998626,17.8615128 14,16.4579374 L14,6.06812634 C13.998626,4.66455102 12.9039207,3.52749089 11.5526277,3.52606377 Z M4.8305118,3.14573553 C4.81024584,2.53528373 5.03042348,1.94302775 5.43814711,1.50240358 C5.8475882,1.0635633 6.41091319,0.815243925 6.99862604,0.815243925 C7.58633888,0.815243925 8.15000736,1.0635633 8.55910496,1.50240358 C8.96717209,1.94302775 9.18700623,2.53528373 9.16708376,3.14573553 L9.16708376,3.52606377 L4.8305118,3.52606377 L4.8305118,3.14573553 Z M13.2271456,16.4579374 C13.2257716,17.4180343 12.4755876,18.1958163 11.5526277,18.1972434 L2.4473723,18.1972434 C1.52441239,18.1958163 0.774228372,17.4180343 0.772854409,16.4579374 L0.772854409,6.06812634 C0.774228372,5.10802944 1.52441239,4.33024749 2.4473723,4.32882037 L4.05765739,4.32882037 L4.05765739,6.73709017 C4.05765739,6.95865099 4.23077678,7.13846847 4.4440846,7.13846847 C4.65739241,7.13846847 4.8305118,6.95865099 4.8305118,6.73709017 L4.8305118,4.32882037 L9.1694882,4.32882037 L9.1694882,6.73709017 C9.1694882,6.95865099 9.34260759,7.13846847 9.5559154,7.13846847 C9.76922322,7.13846847 9.94234261,6.95865099 9.94234261,6.73709017 L9.94234261,4.32882037 L11.5526277,4.32882037 C12.4755876,4.33024749 13.2257716,5.10802944 13.2271456,6.06812634 L13.2271456,16.4579374 Z" id="ico_bagEmpty"></path>
                    </g>
                </g>
            </g>
        </g>
    </g>
</svg>