<?xml version="1.0" encoding="UTF-8"?>
<svg width="40px" height="40px" viewBox="0 0 40 40" version="1.1" xmlns="http://www.w3.org/2000/svg" xmlns:xlink="http://www.w3.org/1999/xlink">
    <!-- Generator: Sketch 48.2 (47327) - http://www.bohemiancoding.com/sketch -->
    <title>ico_brand</title>
    <desc>Created with Sketch.</desc>
    <defs></defs>
    <g id="PDP---Small-1" stroke="none" stroke-width="1" fill="none" fill-rule="evenodd" transform="translate(-168.000000, -94.000000)">
        <g id="Group-2" fill="#000000">
            <g id="Group-4" transform="translate(0.000000, 76.000000)">
                <g id="Group">
                    <path d="M187.999963,18 L168,38 L187.999963,58 L208,38 L187.999963,18 Z M187.999963,20.8304485 L196.714998,29.5453936 L189.391777,36.8681593 L187.255905,34.7637293 L188.069981,33.9490661 C188.670396,33.3493149 189.000679,32.5513646 189.000679,31.7029075 C189.000679,30.8547448 188.670396,30.0569418 188.070496,29.4564544 C186.831676,28.2179307 184.816476,28.2179307 183.577876,29.4570434 C182.339645,30.6957879 182.339645,32.7109841 183.583251,33.9541462 L184.415218,34.7740368 L176.009777,43.1793143 L170.83038,38 L187.999963,20.8304485 Z M189.402085,39.6883002 L191.172701,41.4332182 C191.642505,41.9025791 191.901077,42.5269947 191.901077,43.190947 C191.901077,43.8547521 191.642505,44.4786524 191.172701,44.9480132 C190.203939,45.9178048 188.626441,45.9169213 187.657679,44.9480132 C186.688401,43.9794733 186.688401,42.4024944 187.657679,41.4332182 L189.402085,39.6883002 Z M186.999836,31.7029075 C186.999836,32.0166246 186.877176,32.3115673 186.654975,32.5335473 L185.830003,33.3585917 L184.993324,32.5335473 C184.535301,32.0757456 184.535301,31.3299957 184.992809,30.8719731 C185.222225,30.6430722 185.523132,30.5281432 185.824039,30.5281432 C186.125167,30.5281432 186.426074,30.6430722 186.654975,30.8719731 C186.877176,31.094174 186.999836,31.3891167 186.999836,31.7029075 Z M177.425225,44.5947594 L185.840973,36.1787326 L187.976845,38.283678 L186.242231,40.0182149 C184.493408,41.7675504 184.493408,44.6141964 186.242747,46.3635319 C187.117416,47.238347 188.266413,47.6755336 189.415411,47.6755336 C190.564482,47.6755336 191.71348,47.238347 192.587634,46.3635319 C193.435798,45.5160319 193.902583,44.3896395 193.902583,43.190947 C193.902583,41.9921074 193.435798,40.8653468 192.582774,40.0128402 L190.817532,38.2733705 L198.130372,30.9608387 L205.169546,38 L187.999963,55.1694779 L177.425225,44.5947594 Z" id="ico_brand"></path>
                </g>
            </g>
        </g>
    </g>
</svg>