<?xml version="1.0" encoding="UTF-8"?>
<svg width="38px" height="41px" viewBox="0 0 38 41" version="1.1" xmlns="http://www.w3.org/2000/svg" xmlns:xlink="http://www.w3.org/1999/xlink">
    <!-- Generator: Sketch 48.2 (47327) - http://www.bohemiancoding.com/sketch -->
    <title>Group 13</title>
    <desc>Created with Sketch.</desc>
    <defs></defs>
    <g id="PDP---Small---Mens" stroke="none" stroke-width="1" fill="none" fill-rule="evenodd" transform="translate(-284.000000, -2325.000000)">
        <g id="Group-4" transform="translate(245.000000, 2326.000000)" fill="#000000" stroke="#000000" stroke-width="0.75">
            <g id="Group-13" transform="translate(40.000000, 0.000000)">
                <g id="Page-1">
                    <path d="M13.8148244,7.93926766 C10.5498366,7.93926766 7.915363,10.6140101 7.915363,13.9289042 C7.915363,17.2437983 10.5498366,19.9185408 13.8148244,19.9185408 C17.0798121,19.9185408 19.7142857,17.2437983 19.7142857,13.9289042 C19.7142857,10.6140101 17.0798121,7.93926766 13.8148244,7.93926766 Z" id="Fill-1"></path>
                    <path d="M13.324356,4.82208016 C13.7392412,4.82208016 14.0850773,4.47095788 14.0850773,4.04973098 L14.0850773,0.889630435 C14.0850773,0.468403533 13.7392412,0.11728125 13.324356,0.11728125 C12.9094707,0.11728125 12.5636347,0.468403533 12.5636347,0.889630435 L12.5636347,4.04973098 C12.5636347,4.47095788 12.9094707,4.82208016 13.324356,4.82208016 Z" id="Fill-2"></path>
                    <path d="M5.89691803,7.9869538 C6.03560656,8.12716304 6.2427541,8.19786685 6.4504918,8.19786685 C6.65763934,8.19786685 6.86537705,8.12716304 7.00347541,7.9869538 C7.2802623,7.70593614 7.2802623,7.21460462 7.00347541,6.93358696 L4.79036066,4.68664402 C4.51357377,4.40622554 4.02963934,4.40622554 3.75285246,4.68664402 C3.47665574,4.96766168 3.47665574,5.45899321 3.75285246,5.74001087 L5.89691803,7.9869538 Z" id="Fill-3"></path>
                    <path d="M4.72131148,13.5342065 C4.72131148,13.1129796 4.37547541,12.7618573 3.96059016,12.7618573 L0.848655738,12.7618573 C0.433180328,12.7618573 0.0873442623,13.1129796 0.0873442623,13.5342065 C0.0873442623,13.9554334 0.433180328,14.3065557 0.848655738,14.3065557 L3.96059016,14.3065557 C4.37547541,14.3065557 4.72131148,13.9554334 4.72131148,13.5342065 Z" id="Fill-4"></path>
                    <path d="M5.89691803,19.1515639 L3.68380328,21.3985068 C3.40701639,21.6795245 3.40701639,22.170856 3.68380328,22.4518736 C3.8224918,22.5920829 4.02963934,22.6621875 4.23737705,22.6621875 C4.44452459,22.6621875 4.6522623,22.5920829 4.79036066,22.4518736 L7.00347541,20.2049307 C7.2802623,19.923913 7.2802623,19.4325815 7.00347541,19.1515639 C6.65763934,18.8705462 6.17370492,18.8705462 5.89691803,19.1515639 Z" id="Fill-5"></path>
                    <path d="M13.324356,22.3164375 C12.9094707,22.3164375 12.5636347,22.6675598 12.5636347,23.0887867 L12.5636347,26.2488872 C12.5636347,26.6701141 12.9094707,27.0212364 13.324356,27.0212364 C13.7392412,27.0212364 14.0850773,26.6701141 14.0850773,26.2488872 L14.0850773,23.0887867 C14.0850773,22.6675598 13.7392412,22.3164375 13.324356,22.3164375 Z" id="Fill-6"></path>
                    <path d="M22.4113349,23.5100136 C22.6190726,23.5100136 22.8262201,23.439909 22.9649087,23.2996997 C23.2416956,23.0186821 23.2416956,22.5273505 22.9649087,22.2463329 L20.7517939,19.9993899 C20.475007,19.7183723 19.9910726,19.7183723 19.7142857,19.9993899 C19.4374988,20.2804076 19.4374988,20.7717391 19.7142857,21.0527568 L21.9274005,23.2996997 C22.0654988,23.439909 22.2041874,23.5100136 22.4113349,23.5100136 Z" id="Fill-7"></path>
                    <path d="M22.8535925,13.5342065 C22.8535925,13.9554334 23.1994286,14.3065557 23.6143138,14.3065557 L26.7268384,14.3065557 C27.1417237,14.3065557 27.4875597,13.9554334 27.4875597,13.5342065 C27.4875597,13.1129796 27.1417237,12.7618573 26.7268384,12.7618573 L23.6143138,12.7618573 C23.1994286,12.7618573 22.8535925,13.1129796 22.8535925,13.5342065 Z" id="Fill-8"></path>
                    <path d="M20.2678595,6.50221467 C20.475007,6.50221467 20.6827447,6.43151087 20.8208431,6.29130163 L23.0339578,4.0443587 C23.3107447,3.76334103 23.3107447,3.27200951 23.0339578,2.99099185 C22.757171,2.71057337 22.2732365,2.71057337 21.9964496,2.99099185 L19.7142857,5.16783016 C19.4374988,5.44884783 19.4374988,5.94017935 19.7142857,6.22119701 C19.8523841,6.43151087 20.0601218,6.50221467 20.2678595,6.50221467 Z" id="Fill-9"></path>
                    <path d="M30.3102295,20.9071753 C30.0340328,20.7663668 29.6881967,20.8364715 29.480459,21.0473845 C29.2733115,21.2582976 29.2036721,21.6088207 29.3423607,21.8898383 C29.7572459,22.8731005 29.9643934,23.9264674 29.9643934,24.9798342 C29.9643934,29.3329117 26.506623,32.8435353 22.2184918,32.8435353 C21.1815738,32.8435353 20.1440656,32.6332215 19.1756066,32.2119946 C18.8988197,32.0711861 18.5535738,32.1418899 18.3458361,32.3522038 C18.1380984,32.5631168 18.0690492,32.9142391 18.2077377,33.1946576 C19.659541,36.6357758 22.9798033,38.8827187 26.6447213,38.8827187 C31.762623,38.8827187 35.8430164,34.6692514 35.8430164,29.5438247 C35.9126557,25.7521834 33.699541,22.381769 30.3102295,20.9071753 Z" id="Fill-10"></path>
                </g>
            </g>
        </g>
    </g>
</svg>