<?xml version="1.0" encoding="UTF-8"?>
<svg width="38px" height="36px" viewBox="0 0 38 36" version="1.1" xmlns="http://www.w3.org/2000/svg" xmlns:xlink="http://www.w3.org/1999/xlink">
    <!-- Generator: Sketch 48.2 (47327) - http://www.bohemiancoding.com/sketch -->
    <title>Group 8</title>
    <desc>Created with Sketch.</desc>
    <defs></defs>
    <g id="PDP---Small" stroke="none" stroke-width="1" fill="none" fill-rule="evenodd" transform="translate(-169.000000, -315.000000)">
        <g id="Group-3" transform="translate(130.000000, 315.000000)" fill="#683EBD">
            <g id="Group-8" transform="translate(39.000000, 0.000000)">
                <path d="M20.5141685,2.24251499 L20.5141685,0 L17.4876229,0 L17.4876229,2.24251499 C7.71744927,3.01128402 0,11.1225268 0,20.99998 L3.02654565,20.99998 C3.02654565,19.4381059 4.3090262,18.1668722 5.8847185,18.1668722 C7.4604108,18.1668722 8.74477993,19.4381059 8.74477993,20.99998 L11.7713256,20.99998 C11.7713256,19.4381059 13.0538061,18.1668722 14.6294984,18.1668722 C16.2051907,18.1668722 17.4876713,19.4381059 17.4876713,20.99998 L17.4876713,31.499994 C17.4876713,32.3287631 16.8086113,32.999996 15.9743985,32.999996 C15.1401856,32.999996 14.4611256,32.3287631 14.4611256,31.499994 L11.43458,31.499994 C11.43458,33.9806373 13.4718084,36 15.9743985,36 C18.4769885,36 20.5142169,33.9806373 20.5142169,31.499994 L20.5142169,20.99998 C20.5142169,19.4381059 21.7966975,18.1668722 23.3723898,18.1668722 C24.9499707,18.1668722 26.2305626,19.4381059 26.2305626,20.99998 L29.2571083,20.99998 C29.2571083,19.4381059 30.5395888,18.1668722 32.1152811,18.1668722 C33.692862,18.1668722 34.973454,19.4381059 34.973454,20.99998 L37.9999997,20.99998 C38.0018931,11.1225268 30.2840031,3.01099601 20.5143138,2.24251499 L20.5141685,2.24251499 Z" id="Page-1"></path>
            </g>
        </g>
    </g>
</svg>