<?xml version="1.0" encoding="UTF-8"?>
<svg width="31px" height="32px" viewBox="0 0 31 32" version="1.1" xmlns="http://www.w3.org/2000/svg" xmlns:xlink="http://www.w3.org/1999/xlink">
    <!-- Generator: Sketch 48.2 (47327) - http://www.bohemiancoding.com/sketch -->
    <title>np_champaign_342406_000000</title>
    <desc>Created with Sketch.</desc>
    <defs></defs>
    <g id="PDP---Small---Mens" stroke="none" stroke-width="1" fill="none" fill-rule="evenodd" transform="translate(-57.000000, -2332.000000)">
        <g id="Group" transform="translate(15.000000, 2332.000000)" fill="#000000" fill-rule="nonzero">
            <g id="np_champaign_342406_000000" transform="translate(42.000000, 0.000000)">
                <path d="M11.2331808,9.22941944e-05 L0.864175394,9.22941944e-05 C0.386467371,9.22941944e-05 0,0.415416169 0,0.928793396 L0,12.0720253 C0,12.1686462 0.0147609924,12.2623802 0.0415976302,12.3503513 C0.283138019,15.387421 2.44226423,17.7942321 5.18522069,18.2195237 L5.18522069,27.8568835 L1.90158779,27.8568835 C1.42387977,27.8568835 1.0374124,28.2722074 1.0374124,28.7855846 C1.0374124,29.2989618 1.42387977,29.7142857 1.90158779,29.7142857 L10.1960364,29.7142857 C10.6737444,29.7142857 11.0602118,29.2989618 11.0602118,28.7855846 C11.0602118,28.2722074 10.6737444,27.8568835 10.1960364,27.8568835 L6.91240349,27.8568835 L6.91374531,18.2195237 C9.65123969,17.7955611 11.8089987,15.3930325 12.0546202,12.3617958 C12.0828,12.2709451 12.097561,12.1728807 12.097561,12.071933 L12.097561,0.928701102 C12.097561,0.415323875 11.7110936,0 11.2333856,0 L11.2331808,9.22941944e-05 Z" id="Shape"></path>
                <path d="M30.9734362,28.7528412 C30.8548357,28.2687552 30.3817947,27.9769099 29.9073786,28.0975992 L26.6737836,28.9380418 L24.4448938,19.8461179 C27.0432237,18.7446848 28.6121747,15.9287458 28.1543008,13.0074193 C28.1597538,12.913411 28.1529373,12.8165974 28.1297623,12.7197838 L28.1202196,12.6790943 C28.1243094,12.6454198 28.1297623,12.6131498 28.1297623,12.5780709 C28.1297623,12.3844437 28.068417,12.2048322 27.9675382,12.0575266 L25.5518693,2.20626621 C25.4332688,1.72218017 24.9547835,1.43033487 24.4858118,1.55102413 L14.2722916,4.20428401 C14.0473576,4.26321341 13.8537837,4.41194136 13.7338012,4.61678264 C13.6152007,4.82303914 13.5797538,5.06857712 13.635648,5.30147864 L16.213527,15.8136564 C16.2353389,15.9006497 16.2694212,15.9820287 16.317135,16.0577971 C17.1841639,18.6549509 19.5466468,20.3275387 22.1121019,20.3275387 C22.3206788,20.3275387 22.5319709,20.3135079 22.7432839,20.291059 L24.9708126,29.3790317 L21.7372176,30.2194743 C21.2668848,30.3415429 20.983331,30.8326188 21.1005914,31.3167049 C21.2014702,31.7278026 21.5586398,32 21.9512527,32 C22.0221394,32 22.0943942,31.9915812 22.1666454,31.973341 L30.3364843,29.8518681 C30.8068172,29.7297996 31.091732,29.2373227 30.9731106,28.7532367 L30.9734362,28.7528412 Z" id="Shape"></path>
            </g>
        </g>
    </g>
</svg>