<?xml version="1.0" encoding="UTF-8"?>
<svg width="39px" height="39px" viewBox="0 0 39 39" version="1.1" xmlns="http://www.w3.org/2000/svg" xmlns:xlink="http://www.w3.org/1999/xlink">
    <!-- Generator: Sketch 48.2 (47327) - http://www.bohemiancoding.com/sketch -->
    <title>Group 16</title>
    <desc>Created with Sketch.</desc>
    <defs></defs>
    <g id="PDP---Small" stroke="none" stroke-width="1" fill="none" fill-rule="evenodd" transform="translate(-54.000000, -313.000000)">
        <g id="Group" transform="translate(15.000000, 313.000000)" fill="#683EBD">
            <g id="Group-16" transform="translate(39.000000, 0.000000)">
                <path d="M3.61740591,30.3691428 L0.692405912,27.4441428 C-0.230801971,26.5209348 -0.230801971,25.0249338 0.692405912,24.1017258 L23.2558559,1.5382758 C24.1790639,0.615067801 25.6750649,0.615067801 26.5982729,1.5382758 L29.5232729,4.4632758 C28.1384609,5.8480878 28.1384609,8.0921088 29.5232729,9.4767258 C30.9080849,10.8615378 33.1521059,10.8615378 34.5367229,9.4767258 L37.4617229,12.4017258 C38.3849309,13.3249338 38.3849309,14.8209348 37.4617229,15.7441428 L14.8982729,38.307594 C13.9750649,39.230802 12.4790639,39.230802 11.5558559,38.307594 L8.63085591,35.3825928 C10.0156679,33.9977808 10.0156679,31.7537598 8.63085591,30.3691428 C7.24604391,28.9843308 5.00202291,28.9843308 3.61740591,30.3691428 Z M21.5847059,8.2229928 L7.37700591,22.4306928 L16.5693059,31.6229928 L30.7770059,17.4152928 L21.5847059,8.2229928 Z M21.5847059,12.4018428 L26.5981559,17.4152928 L16.5693059,27.4441428 L11.5558559,22.4306928 L21.5847059,12.4018428 Z" id="Page-1"></path>
            </g>
        </g>
    </g>
</svg>