<?xml version="1.0" encoding="UTF-8"?>
<svg width="20px" height="17px" viewBox="0 0 20 17" version="1.1" xmlns="http://www.w3.org/2000/svg" xmlns:xlink="http://www.w3.org/1999/xlink">
    <!-- Generator: Sketch 48.2 (47327) - http://www.bohemiancoding.com/sketch -->
    <title>Page 1 Copy</title>
    <desc>Created with Sketch.</desc>
    <defs></defs>
    <g id="Header-/-Desktop" stroke="none" stroke-width="1" fill="none" fill-rule="evenodd" transform="translate(-1184.000000, -77.000000)">
        <g id="Header" fill="#000000">
            <g id="Actions" transform="translate(1069.000000, 74.000000)">
                <g id="Faves" transform="translate(115.000000, 3.000000)">
                    <path d="M5.10495449,0.28375155 C3.80042049,0.28375155 2.49333449,0.77875155 1.49563449,1.76188755 C-0.499831512,3.72813755 -0.497257732,6.91648755 1.49563449,8.88438755 L9.58063449,16.8730275 C9.75164929,17.0423241 10.0274985,17.0423241 10.1993845,16.8730275 C12.8979045,14.2132275 15.5997245,11.5578275 18.2980245,8.89802755 C20.2934905,6.93177755 20.2934905,3.73484755 18.2980245,1.76870755 C16.3025585,-0.19743245 13.0747845,-0.19754245 11.0793845,1.76870755 L9.90374849,2.93745755 L8.71438449,1.76182155 C7.71664049,0.77868555 6.40944449,0.28368555 5.10506449,0.28368555 L5.10495449,0.28375155 Z M5.10495449,1.15688755 C6.18431849,1.15688755 7.26627849,1.57024555 8.09563449,2.38752355 L9.59438449,3.86565955 C9.76539929,4.03495615 10.0412485,4.03495615 10.2131345,3.86565955 L11.6981345,2.39440955 C13.3567365,0.75901755 16.0206945,0.75901755 17.6794945,2.39440955 C19.3380965,4.02980155 19.3380965,6.63710955 17.6794945,8.27258955 C15.0841545,10.8309695 12.4855145,13.3867095 9.89017449,15.9450895 L2.11449449,8.25872955 C0.456750268,6.62162155 0.455892268,4.02284955 2.11449449,2.38736955 C2.94378449,1.57011355 4.02574449,1.15673355 5.10517449,1.15673355 L5.10495449,1.15688755 Z" id="Page-1-Copy"></path>
                </g>
            </g>
        </g>
    </g>
</svg>