<?xml version="1.0" encoding="UTF-8"?>
<svg width="16px" height="16px" viewBox="0 0 16 16" version="1.1" xmlns="http://www.w3.org/2000/svg" xmlns:xlink="http://www.w3.org/1999/xlink">
    <!-- Generator: Sketch 48.2 (47327) - http://www.bohemiancoding.com/sketch -->
    <title>Page 1</title>
    <desc>Created with Sketch.</desc>
    <defs></defs>
    <g id="PDP---Medium" stroke="none" stroke-width="1" fill="none" fill-rule="evenodd" transform="translate(-737.000000, -1026.000000)">
        <g id="Page-1" transform="translate(737.000000, 1026.000000)" fill="#6E7381">
            <path d="M10.929792,10.0914319 C12.2858901,8.44447349 12.6952948,6.21419236 12.0121751,4.19292522 C11.3290554,2.17245661 9.65093133,0.647872201 7.57356384,0.162169193 C5.49619635,-0.323653592 3.31502038,0.298635169 1.80680287,1.80679192 C0.298645258,3.31494667 -0.323665847,5.49597875 0.162177027,7.57354192 C0.648000736,9.65090546 2.17246826,11.3290064 4.19294071,12.0121447 C6.21421169,12.6952632 8.44449707,12.2858592 10.0914586,10.9297637 L15.1617066,16 L16,15.1617082 L10.929792,10.0914319 Z M6.17835784,11.1293551 C4.86671767,11.1238972 3.61049526,10.5982958 2.68560159,9.66721534 C1.7615264,8.73689345 1.2437217,7.47666084 1.24763448,6.16508305 C1.25075472,4.85344538 1.77478195,3.59642683 2.70432704,2.67073639 C3.63385217,1.74510584 4.89328865,1.22574499 6.20486893,1.22730211 C7.5165091,1.22964179 8.77432856,1.75133433 9.70161782,2.68007914 C10.6288073,3.60804537 11.1489477,4.86664101 11.1489477,6.1782188 C11.1442683,7.49297072 10.6178874,8.7524647 9.68602658,9.68035108 C8.75492436,10.6083173 7.49327197,11.1292353 6.17849758,11.1292353 L6.17835784,11.1293551 Z" id="Fill-1"></path>
            <polygon id="Fill-2" points="6.82263373 4.21052632 5.79148443 4.21052632 5.79148443 5.79148443 4.21052632 5.79148443 4.21052632 6.82263373 5.79148443 6.82263373 5.79148443 8.42105263 6.82263373 8.42105263 6.82263373 6.82263373 8.42105263 6.82263373 8.42105263 5.79148443 6.82263373 5.79148443"></polygon>
        </g>
    </g>
</svg>