<?xml version="1.0" encoding="UTF-8"?>
<svg width="14px" height="13px" viewBox="0 0 14 13" version="1.1" xmlns="http://www.w3.org/2000/svg" xmlns:xlink="http://www.w3.org/1999/xlink">
    <!-- Generator: Sketch 48.2 (47327) - http://www.bohemiancoding.com/sketch -->
    <title>Page 1</title>
    <desc>Created with Sketch.</desc>
    <defs></defs>
    <g id="PDP---Small---Mens" stroke="none" stroke-width="1" fill="none" fill-rule="evenodd" transform="translate(-15.000000, -1167.000000)">
        <g id="Group-8" transform="translate(15.000000, 1152.000000)" fill="#000000">
            <g id="Heart" transform="translate(0.000000, 15.000000)">
                <path d="M9.8864197,0 C8.44161398,0 7.52937036,0.747140626 7.00002827,1.42283037 C6.47065817,0.747140626 5.55844256,0 4.11307683,0 C1.65270708,0 0,2.42150666 0,4.68268015 C0,7.97516175 5.95282412,12.3871496 6.63140681,12.8791552 C6.74242305,12.9593307 6.87147976,13 7.00000027,13 C7.12906398,13 7.25757329,12.9599122 7.36859373,12.8791552 C8.04727442,12.3870603 14,7.97501301 14,4.68268015 C14,2.42150666 12.3467335,0 9.8863637,0 L9.8864197,0 Z M6.99946826,11.458764 C4.65557898,9.68736521 1.30816516,6.51743883 1.30816516,4.68268015 C1.30816516,3.30226816 2.28324158,1.38960363 4.11307683,1.38960363 C5.77782342,1.38960363 6.36568575,2.91708188 6.38864584,2.97746709 C6.48434882,3.24588384 6.72607518,3.42134305 6.99622025,3.42366327 L7.00059527,3.42366327 C7.26911633,3.42366327 7.51082729,3.24704395 7.60982168,2.98210753 C7.63388498,2.91703726 8.22177811,1.38963338 9.8865093,1.38963338 C11.716878,1.38963338 12.6919804,3.30217892 12.6919804,4.6827099 C12.6919804,6.51508887 9.34400715,9.6862051 6.99955787,11.4587938 L6.99946826,11.458764 Z" id="Page-1"></path>
            </g>
        </g>
    </g>
</svg>