<?xml version="1.0" encoding="UTF-8"?>
<svg width="13px" height="12px" viewBox="0 0 13 12" version="1.1" xmlns="http://www.w3.org/2000/svg" xmlns:xlink="http://www.w3.org/1999/xlink">
    <!-- Generator: Sketch 48.2 (47327) - http://www.bohemiancoding.com/sketch -->
    <title>Page 1</title>
    <desc>Created with Sketch.</desc>
    <defs></defs>
    <g id="PDP---Small---Mens" stroke="none" stroke-width="1" fill="none" fill-rule="evenodd" transform="translate(-137.000000, -1167.000000)">
        <g id="Group-8" transform="translate(15.000000, 1152.000000)" fill="#000000">
            <g id="Page-1" transform="translate(122.000000, 15.000000)">
                <path d="M3,7.30782443 C3,7.69040717 3.31805776,8 3.71110112,8 C4.10414449,8 4.42220225,7.69040717 4.42220225,7.30782443 C4.42220225,5.77340962 5.70481535,4.52424037 7.28118432,4.52424037 L10.5707381,4.52424037 L8.55832194,6.48309723 C8.28054806,6.75347832 8.28054806,7.19150432 8.55832194,7.4618681 C8.69720887,7.59705864 8.87915299,7.66465824 9.06108821,7.66465824 C9.24302343,7.66465824 9.42497643,7.59706383 9.56385448,7.4618681 L12.789587,4.32198667 C12.8229198,4.28954094 12.8527807,4.25371566 12.879863,4.2151857 C12.8895856,4.20166752 12.895141,4.18679612 12.9034734,4.17260133 C12.9187514,4.1475913 12.9340294,4.12258127 12.9451403,4.09621803 C12.9534744,4.07729049 12.9569464,4.05768808 12.9638903,4.03808566 C12.9715293,4.0144271 12.9805567,3.99144514 12.9854171,3.96710998 C12.992361,3.93331278 12.9944445,3.89816237 12.996528,3.86368857 C12.9972232,3.85287332 13,3.84340955 13,3.83259431 C13,3.82313054 12.9972232,3.81434337 12.9972232,3.8048796 C12.9958347,3.76905432 12.9930561,3.73322905 12.9861122,3.69807864 C12.98125,3.67442008 12.9729177,3.65278959 12.9652787,3.6304825 C12.9590281,3.60952862 12.9541678,3.588573 12.9458354,3.56829572 C12.9354178,3.54328569 12.9208349,3.5209786 12.9076422,3.49732004 C12.8986148,3.48109717 12.8909758,3.46419771 12.8805599,3.44932804 C12.854866,3.41147469 12.8250051,3.37564941 12.7923674,3.34387856 L9.56396826,0.202785812 C9.28619438,-0.0675952707 8.83619181,-0.0675952707 8.55843571,0.202785812 C8.28067961,0.473166895 8.28066184,0.911192901 8.55843571,1.18155668 L10.5708519,3.14041355 L7.28200919,3.14041355 C4.92097569,3.14041355 3.00011378,5.01015281 3.00011378,7.30765658 L3,7.30782443 Z" id="Fill-1"></path>
                <path d="M12.2972973,7.4151016 C11.9088959,7.4151016 11.5945946,7.72125775 11.5945946,8.09959358 L11.5945946,10.631016 L1.40540541,10.631016 L1.40540541,1.36898396 L5.82751351,1.36898396 C6.21591486,1.36898396 6.53021622,1.06282781 6.53021622,0.684491979 C6.53021622,0.30615615 6.21591486,0 5.82751351,0 L1.40540541,0 C0.62927027,0 0,0.612962567 0,1.36898396 L0,10.631016 C0,11.3870374 0.62927027,12 1.40540541,12 L11.5945946,12 C12.3707297,12 13,11.3870374 13,10.631016 L13,8.09959358 C13,7.72192513 12.6856986,7.4151016 12.2972973,7.4151016 Z" id="Fill-2"></path>
            </g>
        </g>
    </g>
</svg>