<?xml version="1.0" encoding="UTF-8"?>
<svg width="26px" height="30px" viewBox="0 0 26 30" version="1.1" xmlns="http://www.w3.org/2000/svg" xmlns:xlink="http://www.w3.org/1999/xlink">
    <!-- Generator: Sketch 48.2 (47327) - http://www.bohemiancoding.com/sketch -->
    <title>Fill 20</title>
    <desc>Created with Sketch.</desc>
    <defs></defs>
    <g id="Checkout---Small-02" stroke="none" stroke-width="1" fill="none" fill-rule="evenodd" transform="translate(-15.000000, -482.000000)">
        <path d="M40.9473726,489.683825 C40.9327947,489.623688 40.9298799,489.557687 40.9007204,489.504887 C40.8365718,489.39195 40.7432675,489.296613 40.6266371,489.230611 L28.2783674,482.057093 C28.0451065,481.922153 27.7622824,482.051228 27.5290216,482.187632 L15.4169985,489.399449 L15.4140836,489.399449 C15.2974532,489.399449 15.2041489,489.43465 15.1400003,489.547586 C15.1108445,489.598922 15.1108445,489.598922 15.0933481,489.656122 C15.0729368,489.723592 15.0379477,489.752924 15.0379477,489.823326 L15.0000438,504.084003 C14.9971289,504.353878 15.1400003,504.592964 15.3732611,504.729375 L27.7215308,511.900265 C27.8381612,511.967735 27.9664547,512 28.0947482,512 C28.2230416,512 28.3542499,511.964799 28.4679655,511.898797 C28.4679655,511.897329 28.4679655,511.897329 28.4708804,511.895865 L40.5888787,504.807205 C40.8192247,504.673733 40.9591812,504.427333 40.962096,504.160368 L41,489.883546 L41,489.882078 L41,489.880613 C41,489.810211 40.9679257,489.750074 40.9475182,489.684073 L40.9473726,489.683825 Z M27.9052919,483.574788 L32.3723305,486.169421 L21.5023748,492.247668 L18.0472031,490.239721 L17.2745311,489.790911 L27.9052919,483.574788 Z M27.3600586,507.275372 L27.3542289,509.944799 L16.4928572,503.636384 L16.5278464,491.091644 L21.4057973,493.925344 L21.4437013,493.997214 L21.4874386,493.973747 L27.386139,497.401453 L27.3600586,507.275372 Z M28.1356416,496.098876 L23.0098743,493.121444 L33.87983,487.044699 L38.7667382,489.882791 L28.1356416,496.098876 Z M39.4691333,503.724471 L28.8469939,509.937515 L28.8499125,508.482535 L28.8790682,497.39991 L39.5041933,491.188368 L39.4691333,503.724471 Z" id="Fill-20" fill="#4200D7"></path>
    </g>
</svg>