<?xml version="1.0" encoding="UTF-8"?>
<svg width="30px" height="30px" viewBox="0 0 30 30" version="1.1" xmlns="http://www.w3.org/2000/svg" xmlns:xlink="http://www.w3.org/1999/xlink">
    <!-- Generator: Sketch 48.2 (47327) - http://www.bohemiancoding.com/sketch -->
    <title>CIS Logo</title>
    <desc>Created with Sketch.</desc>
    <defs></defs>
    <g id="Checkout---Small-02" stroke="none" stroke-width="1" fill="none" fill-rule="evenodd" transform="translate(-195.000000, -482.000000)">
        <path d="M209.999972,482 L195,497 L209.999972,512 L225,497 L209.999972,482 Z M209.999972,484.122836 L216.536249,490.659045 L211.043833,496.151119 L209.441929,494.572797 L210.052486,493.9618 C210.502797,493.511986 210.750509,492.913523 210.750509,492.277181 C210.750509,491.641059 210.502797,491.042706 210.052872,490.592341 C209.123757,489.663448 207.612357,489.663448 206.683407,490.592783 C205.754734,491.521841 205.754734,493.033238 206.687438,493.96561 L207.311413,494.580528 L201.007333,500.884486 L197.122785,497 L209.999972,484.122836 Z M211.051564,498.266225 L212.379526,499.574914 C212.731878,499.926934 212.925808,500.395246 212.925808,500.89321 C212.925808,501.391064 212.731878,501.858989 212.379526,502.21101 C211.652954,502.938354 210.469831,502.937691 209.743259,502.21101 C209.016301,501.484605 209.016301,500.301871 209.743259,499.574914 L211.051564,498.266225 Z M209.249877,492.277181 C209.249877,492.512468 209.157882,492.733675 208.991231,492.900161 L208.372502,493.518944 L207.744993,492.900161 C207.401475,492.556809 207.401475,491.997497 207.744606,491.65398 C207.916669,491.482304 208.142349,491.396107 208.368029,491.396107 C208.593875,491.396107 208.819555,491.482304 208.991231,491.65398 C209.157882,491.820631 209.249877,492.041838 209.249877,492.277181 Z M202.068919,501.94607 L208.38073,495.634049 L209.982634,497.212759 L208.681673,498.513661 C207.370056,499.825663 207.370056,501.960647 208.68206,503.272649 C209.338062,503.92876 210.19981,504.25665 211.061558,504.25665 C211.923362,504.25665 212.78511,503.92876 213.440725,503.272649 C214.076848,502.637024 214.426937,501.79223 214.426937,500.89321 C214.426937,499.994081 214.076848,499.14901 213.437081,498.50963 L212.113149,497.205028 L217.597779,491.720629 L222.87716,497 L209.999972,509.877108 L202.068919,501.94607 Z" id="CIS-Logo" fill="#4200D7"></path>
    </g>
</svg>